<svg width="24" height="24" viewBox="0 0 24 24" fill="none" xmlns="http://www.w3.org/2000/svg">
<path d="M7 21C5.89543 21 5 20.1046 5 19V15.2727C5 14.1409 5.39886 13.1761 6.19659 12.3784C6.99432 11.5807 7.95909 11.1818 9.09091 11.1818H9.90909V4.63636C9.90909 4.18636 10.0693 3.80114 10.3898 3.48068C10.7102 3.16023 11.0955 3 11.5455 3H13.1818C13.6318 3 14.017 3.16023 14.3375 3.48068C14.658 3.80114 14.8182 4.18636 14.8182 4.63636V11.1818H15.6364C16.7682 11.1818 17.733 11.5807 18.5307 12.3784C19.3284 13.1761 19.7273 14.1409 19.7273 15.2727V19C19.7273 20.1046 18.8318 21 17.7273 21H7ZM6.63636 19.3636H8.27273V16.9091C8.27273 16.6773 8.35114 16.483 8.50795 16.3261C8.66477 16.1693 8.85909 16.0909 9.09091 16.0909C9.32273 16.0909 9.51705 16.1693 9.67386 16.3261C9.83068 16.483 9.90909 16.6773 9.90909 16.9091V19.3636H11.5455V16.9091C11.5455 16.6773 11.6239 16.483 11.7807 16.3261C11.9375 16.1693 12.1318 16.0909 12.3636 16.0909C12.5955 16.0909 12.7898 16.1693 12.9466 16.3261C13.1034 16.483 13.1818 16.6773 13.1818 16.9091V19.3636H14.8182V16.9091C14.8182 16.6773 14.8966 16.483 15.0534 16.3261C15.2102 16.1693 15.4045 16.0909 15.6364 16.0909C15.8682 16.0909 16.0625 16.1693 16.2193 16.3261C16.3761 16.483 16.4545 16.6773 16.4545 16.9091V19.3636H18.0909V15.2727C18.0909 14.5909 17.8523 14.0114 17.375 13.5341C16.8977 13.0568 16.3182 12.8182 15.6364 12.8182H9.09091C8.40909 12.8182 7.82955 13.0568 7.35227 13.5341C6.875 14.0114 6.63636 14.5909 6.63636 15.2727V19.3636ZM13.1818 11.1818V4.63636H11.5455V11.1818H13.1818Z" fill="#FF6842"/>
</svg>
