<svg width="18" height="18" viewBox="0 0 18 18" fill="none" xmlns="http://www.w3.org/2000/svg">
<path d="M12.4951 13.4873L12.6045 13.7539L12.8701 13.8672L13.5781 14.166L12.8701 14.4668L12.6045 14.5791L12.2139 15.5312L11.9336 14.8457L11.8242 14.5791L11.5586 14.4668L10.8496 14.166L11.5586 13.8672L11.8242 13.7539L11.9336 13.4873L12.2139 12.8008L12.4951 13.4873ZM8.78027 7.82031L8.88965 8.08789L9.15527 8.2002L9.8623 8.5L9.15527 8.7998L8.88965 8.91211L8.78027 9.17969L8.5 9.86523L8.21973 9.17969L8.11035 8.91211L7.84473 8.7998L7.13672 8.5L7.84473 8.2002L8.11035 8.08789L8.21973 7.82031L8.5 7.13379L8.78027 7.82031ZM5.06641 2.1543L5.17578 2.4209L5.44141 2.5332L6.14941 2.83301L5.44141 3.13281L5.17578 3.24609L4.78516 4.19824L4.50488 3.5127L4.39551 3.24609L4.12988 3.13281L3.4209 2.83301L4.12988 2.5332L4.39551 2.4209L4.50488 2.1543L4.78516 1.46777L5.06641 2.1543ZM12.4951 2.1543L12.6045 2.4209L12.8701 2.5332L13.5781 2.83301L12.8701 3.13281L12.6045 3.24609L12.2139 4.19824L11.9336 3.5127L11.8242 3.24609L11.5586 3.13281L10.8496 2.83301L11.5586 2.5332L11.8242 2.4209L11.9336 2.1543L12.2139 1.46777L12.4951 2.1543Z" stroke="#258548" stroke-width="1.4"/>
</svg>
