<svg width="18" height="18" viewBox="0 0 18 18" fill="none" xmlns="http://www.w3.org/2000/svg">
<path d="M8.36573 8.36364H9.63845V3.90909C9.63845 3.72879 9.57747 3.57765 9.4555 3.45568C9.33353 3.33371 9.18239 3.27273 9.00209 3.27273C8.82179 3.27273 8.67065 3.33371 8.54868 3.45568C8.42671 3.57765 8.36573 3.72879 8.36573 3.90909V8.36364ZM4.54755 10.9091H13.4566V9.63636H4.54755V10.9091ZM3.62482 14.7273H5.18391V13.4545C5.18391 13.2742 5.24489 13.1231 5.36686 13.0011C5.48883 12.8792 5.63997 12.8182 5.82027 12.8182C6.00058 12.8182 6.15171 12.8792 6.27368 13.0011C6.39565 13.1231 6.45664 13.2742 6.45664 13.4545V14.7273H8.36573V13.4545C8.36573 13.2742 8.42671 13.1231 8.54868 13.0011C8.67065 12.8792 8.82179 12.8182 9.00209 12.8182C9.18239 12.8182 9.33353 12.8792 9.4555 13.0011C9.57747 13.1231 9.63845 13.2742 9.63845 13.4545V14.7273H11.5475V13.4545C11.5475 13.2742 11.6085 13.1231 11.7305 13.0011C11.8525 12.8792 12.0036 12.8182 12.1839 12.8182C12.3642 12.8182 12.5153 12.8792 12.6373 13.0011C12.7593 13.1231 12.8203 13.2742 12.8203 13.4545V14.7273H14.3794L13.743 12.1818H4.26118L3.62482 14.7273ZM14.3794 16H3.62482C3.21118 16 2.87709 15.8356 2.62255 15.5068C2.368 15.178 2.29376 14.8121 2.39982 14.4091L3.27482 10.9091V9.63636C3.27482 9.28636 3.39944 8.98674 3.64868 8.7375C3.89792 8.48826 4.19755 8.36364 4.54755 8.36364H7.093V3.90909C7.093 3.37879 7.27861 2.92803 7.64982 2.55682C8.02103 2.18561 8.47179 2 9.00209 2C9.53239 2 9.98315 2.18561 10.3544 2.55682C10.7256 2.92803 10.9112 3.37879 10.9112 3.90909V8.36364H13.4566C13.8066 8.36364 14.1063 8.48826 14.3555 8.7375C14.6047 8.98674 14.7294 9.28636 14.7294 9.63636V10.9091L15.6044 14.4091C15.7422 14.8121 15.6813 15.178 15.4214 15.5068C15.1616 15.8356 14.8142 16 14.3794 16Z" fill="#B81919"/>
</svg>
