<svg width="18" height="18" viewBox="0 0 18 18" fill="none" xmlns="http://www.w3.org/2000/svg">
<g clip-path="url(#clip0_644_9263)">
<path d="M11.9986 15.5575C11.1109 16.07 10.1735 16.3839 9.18641 16.4991C8.19929 16.6144 7.24042 16.5474 6.30982 16.298C5.37921 16.0486 4.51529 15.6273 3.71804 15.0339C2.92079 14.4405 2.26436 13.6973 1.74873 12.8042C1.23311 11.9111 0.919229 10.9737 0.807102 9.99201C0.694974 9.0103 0.763588 8.05414 1.01294 7.12354C1.2623 6.19293 1.68366 5.32901 2.27703 4.53176C2.87041 3.73451 3.61093 3.07964 4.49861 2.56714C5.08318 2.22964 5.69525 1.97729 6.33485 1.8101C6.97444 1.6429 7.61364 1.56253 8.25245 1.56899C7.5986 2.71148 7.2595 3.94289 7.23514 5.2632C7.21079 6.58352 7.54861 7.84989 8.24861 9.06233C8.94861 10.2748 9.87641 11.2005 11.032 11.8396C12.1876 12.4786 13.4236 12.8007 14.74 12.8057C14.4261 13.3621 14.0369 13.8755 13.5723 14.3458C13.1078 14.8161 12.5832 15.22 11.9986 15.5575ZM11.2486 14.2585L11.5896 14.0616C11.6979 13.9991 11.7945 13.9289 11.8794 13.851C10.8498 13.4928 9.90988 12.971 9.0595 12.2856C8.20913 11.6002 7.50582 10.7758 6.94957 9.81233C6.39332 8.84888 6.03101 7.82758 5.86263 6.74844C5.69425 5.6693 5.71233 4.59437 5.91688 3.52365C5.80695 3.55825 5.69786 3.6068 5.58961 3.6693L5.24861 3.86618C3.80884 4.69743 2.87506 5.91132 2.44727 7.50787C2.01948 9.10441 2.22121 10.6226 3.05246 12.0623C3.88371 13.5021 5.0976 14.4359 6.69414 14.8637C8.29069 15.2915 9.80884 15.0897 11.2486 14.2585Z" fill="#B27700"/>
</g>
<defs>
<clipPath id="clip0_644_9263">
<rect width="18" height="18" fill="white"/>
</clipPath>
</defs>
</svg>
