<svg width="18" height="18" viewBox="0 0 18 18" fill="none" xmlns="http://www.w3.org/2000/svg">
<path d="M12 6.34585V5.99713L14.4154 3.00226L14.4718 3.20226H12.0359V2.7561H14.9333V3.10482L12.5282 6.09969L12.4667 5.89969H15V6.34585H13.5H12Z" fill="#B27700"/>
<path d="M3 15.3458V14.939L5.81795 11.445L5.88376 11.6783H3.04188V11.1578H6.42222V11.5647L3.61624 15.0587L3.54444 14.8253H6.5V15.3458H3Z" fill="#B27700"/>
<path d="M4.92895 9.2499V8.6549L9.0502 3.5449L9.14645 3.88615H4.9902V3.1249H9.93395V3.7199L5.8302 8.8299L5.7252 8.48865H10.0477V9.2499H4.92895Z" fill="#B27700"/>
<path d="M12 6.34585V5.99713L14.4154 3.00226L14.4718 3.20226H12.0359V2.7561H14.9333V3.10482L12.5282 6.09969L12.4667 5.89969H15V6.34585H13.5H12Z" stroke="#B27700" stroke-width="0.5"/>
<path d="M3 15.3458V14.939L5.81795 11.445L5.88376 11.6783H3.04188V11.1578H6.42222V11.5647L3.61624 15.0587L3.54444 14.8253H6.5V15.3458H3Z" stroke="#B27700" stroke-width="0.5"/>
<path d="M4.92895 9.2499V8.6549L9.0502 3.5449L9.14645 3.88615H4.9902V3.1249H9.93395V3.7199L5.8302 8.8299L5.7252 8.48865H10.0477V9.2499H4.92895Z" stroke="#B27700" stroke-width="0.5"/>
</svg>
