<svg width="18" height="18" viewBox="0 0 18 18" fill="none" xmlns="http://www.w3.org/2000/svg">
<path d="M12 7.34585V6.99713L14.4154 4.00226L14.4718 4.20226H12.0359V3.7561H14.9333V4.10482L12.5282 7.09969L12.4667 6.89969H15V7.34585H13.5H12Z" fill="#B27700"/>
<path d="M4 15.0038V14.6634L6.35759 11.7402L6.41266 11.9354H4.03504V11.4999H6.86315V11.8403L4.51557 14.7635L4.4555 14.5683H6.92822V15.0038H4Z" fill="#B27700"/>
<path d="M5.92895 10.2499V9.6549L10.0502 4.5449L10.1465 4.88615H5.9902V4.1249H10.9339V4.7199L6.8302 9.8299L6.7252 9.48865H11.0477V10.2499H5.92895Z" fill="#B27700"/>
<path d="M12 7.34585V6.99713L14.4154 4.00226L14.4718 4.20226H12.0359V3.7561H14.9333V4.10482L12.5282 7.09969L12.4667 6.89969H15V7.34585H13.5H12Z" stroke="#B27700" stroke-width="0.5"/>
<path d="M4 15.0038V14.6634L6.35759 11.7402L6.41266 11.9354H4.03504V11.4999H6.86315V11.8403L4.51557 14.7635L4.4555 14.5683H6.92822V15.0038H4Z" stroke="#B27700" stroke-width="0.5"/>
<path d="M5.92895 10.2499V9.6549L10.0502 4.5449L10.1465 4.88615H5.9902V4.1249H10.9339V4.7199L6.8302 9.8299L6.7252 9.48865H11.0477V10.2499H5.92895Z" stroke="#B27700" stroke-width="0.5"/>
</svg>
